<svg width="20" height="18" viewBox="0 0 20 18" fill="none" xmlns="http://www.w3.org/2000/svg">
<path d="M18.2422 7.19998H1.75781C0.788516 7.19998 0 8.00742 0 8.99998V12.6C0 13.5925 0.788516 14.4 1.75781 14.4H4.14062V13.8C4.14062 12.8074 4.92914 12 5.89844 12H14.1016C15.0709 12 15.8594 12.8074 15.8594 13.8V14.4H18.2422C19.2115 14.4 20 13.5925 20 12.6V8.99998C20 8.00742 19.2115 7.19998 18.2422 7.19998ZM12.3438 10.2C12.0202 10.2 11.7578 9.93134 11.7578 9.59998C11.7578 9.26854 12.0202 8.99998 12.3438 8.99998C12.6673 8.99998 12.9297 9.26854 12.9297 9.59998C12.9297 9.93134 12.6673 10.2 12.3438 10.2ZM14.6875 10.2C14.3639 10.2 14.1016 9.93134 14.1016 9.59998C14.1016 9.26854 14.3639 8.99998 14.6875 8.99998C15.0111 8.99998 15.2734 9.26854 15.2734 9.59998C15.2734 9.93134 15.0111 10.2 14.6875 10.2Z" fill="#FF6142"/>
<path d="M12.9297 0.06073V2.40001H15.2141C14.9805 1.22629 14.0759 0.29993 12.9297 0.06073Z" fill="#FF6142"/>
<path d="M5.31226 0C4.98839 0 4.72632 0.26836 4.72632 0.6V6H15.2732V3.6H12.3435C12.0196 3.6 11.7576 3.33164 11.7576 3V0H5.31226Z" fill="#FF6142"/>
<path d="M14.1016 18C14.4254 18 14.6875 17.7316 14.6875 17.4V13.8C14.6875 13.4683 14.4254 13.2 14.1016 13.2H5.89844C5.57457 13.2 5.3125 13.4683 5.3125 13.8V17.4C5.3125 17.7316 5.57457 18 5.89844 18H14.1016ZM7.65625 15H12.3438C12.6676 15 12.9297 15.2683 12.9297 15.6C12.9297 15.9316 12.6676 16.2 12.3438 16.2H7.65625C7.33238 16.2 7.07031 15.9316 7.07031 15.6C7.07031 15.2683 7.33238 15 7.65625 15Z" fill="#FF6142"/>
</svg>
