<svg width="51" height="50" viewBox="0 0 51 50" fill="none" xmlns="http://www.w3.org/2000/svg">
<path fill-rule="evenodd" clip-rule="evenodd" d="M24.8115 38.9128H26.7456L28.1249 28.4021H23.2152L24.8115 38.9128Z" fill="#4984D2"/>
<path d="M5.31006 25.7748L22.6933 23.1472L22.6933 28.0454L5.31006 25.7748Z" fill="#4984D2"/>
<path d="M45.874 25.7748L28.4908 23.1472L28.4908 28.0454L45.874 25.7748Z" fill="#4984D2"/>
<path d="M25.3228 5.27881L27.9566 22.6213H23.0469L25.3228 5.27881Z" fill="#4984D2"/>
<path d="M7.4178 42.5915C2.67703 37.8618 -0.40473 30.0801 0.0431063 23.5132C0.490943 16.9462 3.49387 10.814 8.41094 6.42538C13.328 2.03675 19.7697 -0.260647 26.3612 0.0235463C32.9526 0.307739 39.1717 3.15101 43.6909 7.94649L39.0238 8.43209C35.8632 5.80444 31.8609 3.84836 26.2061 3.60455C20.5512 3.36074 15.0248 5.33169 10.8064 9.09673C6.58802 12.8618 4.01179 18.1227 3.62758 23.7565C3.24338 29.3903 4.33163 33.6996 8 38L7.4178 42.5915Z" fill="#4984D2"/>
<path d="M48.507 17.3661C47.5647 14.5459 45.6977 10.184 44.293 8.4322C43.6538 7.59135 43.4999 9.48326 43.7662 10.5343C43.7662 10.5343 43.8716 11.3752 44.293 12.6364C44.7144 13.8977 43.5906 13.3371 43.2395 13.162C42.7127 13.3371 42.502 13.2671 41.6592 13.6875C40.6057 14.2131 38.4986 13.6875 39.0254 14.213C40.2032 15.3881 42.1005 16.3151 43.7662 16.3152C45.8733 16.3153 45.5713 16.9878 45.8733 17.8918C46.4001 19.4684 47.9803 22.6214 46.4001 28.9278C45.1358 33.9729 40.6057 36.9859 38.4986 37.8618L36.9183 38.9129C35.338 39.9639 33.2309 39.9638 34.2845 36.8107C35.338 33.6575 33.7577 34.7085 32.1774 35.7596C31.0686 36.4971 29.1924 39.088 28.4901 40.4895C28.6657 40.6646 27.9633 40.9099 23.7492 40.4895C18.4816 39.9639 17.428 40.4894 16.3745 41.5404C15.321 42.5915 12.1604 42.5915 11.1068 42.066C9.86823 41.4482 6.36598 39.9638 9.52648 43.6426C13.4242 48.1795 20.9397 49.7738 24.2759 49.949C28.3144 50.2993 37.9718 49.003 44.293 41.0149C52.1945 31.0298 50.0874 22.096 48.507 17.3661Z" fill="#4984D2"/>
</svg>
