<svg width="20" height="20" viewBox="0 0 20 20" fill="none" xmlns="http://www.w3.org/2000/svg">
<path fill-rule="evenodd" clip-rule="evenodd" d="M10.8439 1.61291C10.3985 1.61291 10.0375 1.25186 10.0375 0.806458C10.0375 0.361055 10.3985 6.50421e-06 10.8439 6.50421e-06C13.1871 6.50421e-06 15.5303 0.893958 17.3182 2.68182C18.1916 3.55525 18.8531 4.56722 19.3022 5.65134C19.7674 6.77448 20 7.9671 20 9.15606C20 9.60146 19.6389 9.96251 19.1935 9.96251C18.7481 9.96251 18.3871 9.60146 18.3871 9.15606C18.3871 8.16759 18.1965 7.18279 17.8153 6.26251C17.4495 5.37936 16.9038 4.54815 16.1778 3.82222C14.705 2.34936 12.7745 1.61291 10.8439 1.61291ZM8.21894 11.7811C7.33083 10.8946 6.5437 9.91327 5.87459 8.85529C5.63027 8.46888 5.63285 8.00464 5.88128 7.62102L6.83608 6.14682C7.03979 5.83214 7.07866 5.47311 6.94696 5.12222L5.30459 0.744845C5.04737 0.0593211 4.23338 -0.211929 3.61632 0.182305C2.85261 0.670289 2.08874 1.15827 1.32499 1.6463C0.279307 2.31444 -0.206176 3.51549 0.0818881 4.72255C0.96846 8.43771 2.90217 11.7811 5.57479 14.4252C8.21894 17.0979 11.5623 19.0316 15.2775 19.9181C16.4845 20.2062 17.6856 19.7207 18.3537 18.675C18.8417 17.9113 19.3297 17.1474 19.8177 16.3837C20.212 15.7666 19.9407 14.9526 19.2551 14.6954L14.8778 13.053C14.5269 12.9213 14.1679 12.9602 13.8532 13.1639L12.379 14.1187C11.9954 14.3671 11.5312 14.3697 11.1447 14.1254C10.0867 13.4563 9.10543 12.6692 8.21894 11.7811ZM10.8439 8.14739C10.9803 8.14739 11.1131 8.17239 11.2339 8.22239C11.3472 8.26932 11.4572 8.34267 11.5573 8.44275C11.6574 8.54283 11.7307 8.65283 11.7776 8.76618C11.8276 8.88686 11.8526 9.01964 11.8526 9.15606C11.8526 9.60146 12.2137 9.96251 12.6591 9.96251C13.1045 9.96251 13.4655 9.60146 13.4655 9.15606C13.4655 8.81916 13.3985 8.47855 13.2645 8.15501C13.1343 7.84069 12.9452 7.54993 12.6976 7.30235C12.4501 7.05476 12.1593 6.86565 11.845 6.73545C11.5214 6.60146 11.1808 6.53444 10.8439 6.53444C10.3985 6.53444 10.0375 6.89549 10.0375 7.34089C10.0375 7.7863 10.3986 8.14739 10.8439 8.14739ZM10.8439 4.87702C11.4014 4.87702 11.9601 4.98585 12.4857 5.20356C12.9839 5.40993 13.4545 5.71944 13.8675 6.13251C14.2805 6.54553 14.5901 7.01614 14.7965 7.51436C15.0142 8.03993 15.123 8.5986 15.123 9.15606C15.123 9.59968 15.4826 9.95936 15.9263 9.95936C16.3699 9.95936 16.7296 9.59972 16.7296 9.15606C16.7296 8.38815 16.5809 7.62146 16.2834 6.90323C15.9937 6.204 15.5684 5.55263 15.0079 4.99214C14.4474 4.43162 13.7961 4.0063 13.0968 3.7167C12.3786 3.4192 11.6118 3.27045 10.844 3.27045C10.4003 3.27045 10.0407 3.63013 10.0407 4.07376C10.0407 4.51739 10.4003 4.87702 10.8439 4.87702Z" fill="#FF6142"/>
</svg>
