<svg width="16" height="20" viewBox="0 0 16 20" fill="none" xmlns="http://www.w3.org/2000/svg">
<path d="M8 0C5.87827 0 3.84344 0.819442 2.34315 2.27806C0.842854 3.73667 0 5.71498 0 7.77778C0 14.0741 8 20 8 20C8 20 16 14.0741 16 7.77778C16 5.71498 15.1571 3.73667 13.6569 2.27806C12.1566 0.819442 10.1217 0 8 0ZM8 11.4815C7.24655 11.4815 6.51002 11.2643 5.88354 10.8573C5.25707 10.4503 4.76879 9.87189 4.48046 9.19512C4.19212 8.51836 4.11668 7.77367 4.26367 7.05522C4.41067 6.33677 4.77349 5.67684 5.30626 5.15886C5.83903 4.64089 6.51782 4.28815 7.2568 4.14524C7.99577 4.00233 8.76174 4.07568 9.45784 4.356C10.1539 4.63633 10.7489 5.11104 11.1675 5.72011C11.5861 6.32918 11.8095 7.04525 11.8095 7.77778C11.8095 8.76006 11.4082 9.70211 10.6937 10.3967C9.97932 11.0913 9.01035 11.4815 8 11.4815Z" fill="#FF6142"/>
</svg>
